<svg width="204" height="237" viewBox="0 0 204 237" fill="none" xmlns="http://www.w3.org/2000/svg">
<path d="M203.663 77.6003V35.399L102.246 0.119141L0.829751 35.4106V77.4264C0.794969 78.7539 -2.42809 210.076 100.293 235.705L102.258 236.197L104.223 235.705C205.164 210.505 203.79 83.2581 203.669 77.6003H203.663ZM102.252 219.45C14.3191 195.787 17.0204 79.1481 17.061 77.6988V46.9464L102.246 17.3069L187.431 46.9406V77.6931L187.437 77.9597C187.472 79.1423 190.191 195.781 102.252 219.456V219.45Z" fill="#008179"/>
<path d="M97.1384 138.867L63.0412 108.184L52.1836 120.247L99.2485 162.599L161.403 82.6719L148.592 72.707L97.1384 138.867Z" fill="#008179"/>
</svg>
