<svg width="1920" height="4180" viewBox="0 0 1920 4180" fill="none" xmlns="http://www.w3.org/2000/svg">
<path d="M12.0898 4179.04C-129.612 4179.04 -271.23 4164.77 -408.872 4136.61C-543.041 4109.15 -675.034 4068.18 -801.126 4014.82C-924.916 3962.47 -1044.35 3897.65 -1156.01 3822.19C-1266.62 3747.45 -1370.61 3661.66 -1465.15 3567.12C-1559.69 3472.62 -1645.48 3368.59 -1720.22 3257.98C-1795.67 3146.28 -1860.5 3026.89 -1912.85 2903.1C-1966.21 2776.96 -2007.18 2645.01 -2034.63 2510.84C-2062.76 2373.24 -2077.03 2231.62 -2077.03 2089.92C-2077.03 1948.22 -2062.76 1806.6 -2034.59 1668.96C-2007.14 1534.79 -1966.17 1402.8 -1912.81 1276.71C-1860.46 1152.92 -1795.63 1033.48 -1720.18 921.825C-1645.44 811.218 -1559.64 707.222 -1465.11 612.684C-1370.61 518.147 -1266.57 432.356 -1155.97 357.613C-1044.27 282.159 -924.874 217.334 -801.084 164.98C-674.95 111.623 -542.999 70.6522 -408.83 43.199C-271.23 15.0763 -129.612 0.805664 12.0898 0.805664C153.792 0.805664 295.41 15.0763 433.052 43.2409C567.221 70.694 699.214 111.664 825.306 165.022C949.096 217.376 1068.53 282.2 1180.19 357.655C1290.8 432.398 1394.79 518.189 1489.33 612.726C1583.87 707.222 1669.66 811.259 1744.4 921.867C1819.85 1033.56 1884.68 1152.96 1937.03 1276.75C1990.39 1402.88 2031.36 1534.83 2058.81 1669C2086.98 1806.65 2101.25 1948.26 2101.25 2089.96C2101.25 2231.67 2086.98 2373.28 2058.81 2510.93C2031.36 2645.1 1990.39 2777.09 1937.03 2903.18C1884.68 3026.97 1819.85 3146.41 1744.4 3258.06C1669.66 3368.67 1583.87 3472.67 1489.33 3567.2C1394.83 3661.74 1290.8 3747.53 1180.19 3822.28C1068.49 3897.73 949.096 3962.55 825.306 4014.91C699.172 4068.27 567.221 4109.24 433.052 4136.69C295.41 4164.85 153.792 4179.12 12.0898 4179.12V4179.04ZM12.0898 164.311C-1049.67 164.311 -1913.52 1028.16 -1913.52 2089.92C-1913.52 3151.68 -1049.71 4015.49 12.0481 4015.49C1073.81 4015.49 1937.62 3151.68 1937.62 2089.92C1937.62 1028.16 1073.85 164.311 12.0898 164.311Z" fill="#008278"/>
<path d="M12.0912 4017.63C-118.646 4017.63 -249.341 4004.44 -376.312 3978.46C-500.102 3953.14 -621.884 3915.31 -738.267 3866.09C-852.516 3817.75 -962.705 3757.95 -1065.74 3688.36C-1167.81 3619.39 -1263.77 3540.21 -1350.98 3453C-1438.2 3365.78 -1517.38 3269.82 -1586.34 3167.75C-1655.98 3064.68 -1715.78 2954.53 -1764.08 2840.28C-1813.29 2723.9 -1851.08 2602.12 -1876.44 2478.33C-1902.43 2351.36 -1915.61 2220.66 -1915.61 2089.92C-1915.61 1959.19 -1902.43 1828.49 -1876.44 1701.52C-1851.12 1577.73 -1813.29 1455.95 -1764.08 1339.56C-1715.74 1225.32 -1655.94 1115.13 -1586.34 1012.09C-1517.38 910.023 -1438.2 814.063 -1350.98 726.849C-1263.77 639.635 -1167.81 560.456 -1065.74 491.53C-962.663 421.893 -852.516 362.09 -738.267 313.796C-621.884 264.581 -500.102 226.791 -376.312 201.431C-249.3 175.442 -118.646 162.26 12.0912 162.26C142.828 162.26 273.524 175.442 400.495 201.431C524.285 226.75 646.066 264.581 762.449 313.796C876.698 362.132 986.887 421.935 1089.92 491.53C1191.99 560.498 1287.95 639.677 1375.16 726.891C1462.38 814.105 1541.56 910.065 1610.48 1012.14C1680.12 1115.21 1739.92 1225.36 1788.22 1339.61C1837.43 1455.99 1875.22 1577.77 1900.58 1701.56C1926.57 1828.57 1939.75 1959.23 1939.75 2089.96C1939.75 2220.7 1926.57 2351.4 1900.58 2478.37C1875.26 2602.16 1837.43 2723.94 1788.22 2840.32C1739.88 2954.57 1680.08 3064.76 1610.48 3167.79C1541.52 3269.86 1462.34 3365.82 1375.16 3453.04C1287.95 3540.25 1191.99 3619.43 1089.92 3688.4C986.845 3758.04 876.698 3817.84 762.449 3866.13C646.066 3915.35 524.285 3953.14 400.495 3978.5C273.482 4004.49 142.828 4017.67 12.0912 4017.67V4017.63ZM12.0912 325.765C-960.654 325.765 -1752.07 1117.18 -1752.07 2089.92C-1752.07 3062.67 -960.654 3854.08 12.0912 3854.08C984.836 3854.08 1776.25 3062.67 1776.25 2089.92C1776.25 1117.18 984.836 325.765 12.0912 325.765Z" fill="#00D199"/>
<path d="M-38.1678 3843.21C-157.941 3843.21 -277.672 3831.15 -394.054 3807.34C-507.508 3784.12 -619.078 3749.51 -725.71 3704.39C-830.375 3660.12 -931.358 3605.34 -1025.77 3541.52C-1119.26 3478.32 -1207.23 3405.8 -1287.12 3325.91C-1367.01 3246.02 -1439.58 3158.09 -1502.73 3064.56C-1566.5 2970.15 -1621.33 2869.16 -1665.6 2764.5C-1710.72 2657.87 -1745.33 2546.3 -1768.55 2432.84C-1792.37 2316.5 -1804.42 2196.77 -1804.42 2076.96C-1804.42 1957.14 -1792.37 1837.45 -1768.55 1721.07C-1745.33 1607.62 -1710.72 1496.05 -1665.6 1389.41C-1621.33 1284.75 -1566.55 1183.77 -1502.73 1089.36C-1439.53 995.864 -1367.01 907.897 -1287.12 828.006C-1207.23 748.116 -1119.3 675.549 -1025.77 612.399C-931.358 548.62 -830.375 493.798 -725.71 449.521C-619.078 404.408 -507.508 369.798 -394.054 346.572C-277.713 322.76 -157.982 310.707 -38.1678 310.707C81.6467 310.707 201.336 322.76 317.719 346.572C431.172 369.798 542.742 404.408 649.374 449.521C754.04 493.798 855.022 548.579 949.434 612.399C1042.93 675.591 1130.89 748.116 1210.78 828.006C1290.67 907.897 1363.24 995.822 1426.39 1089.36C1490.17 1183.77 1544.99 1284.75 1589.27 1389.41C1634.38 1496.05 1668.99 1607.62 1692.22 1721.07C1716.03 1837.41 1728.08 1957.14 1728.08 2076.96C1728.08 2196.77 1716.03 2316.46 1692.22 2432.84C1668.99 2546.3 1634.38 2657.87 1589.27 2764.5C1544.99 2869.16 1490.21 2970.15 1426.39 3064.56C1363.2 3158.05 1290.67 3246.02 1210.78 3325.91C1130.89 3405.8 1042.97 3478.36 949.434 3541.52C855.022 3605.29 754.04 3660.12 649.374 3704.39C542.742 3749.51 431.172 3784.12 317.719 3807.34C201.377 3831.15 81.6467 3843.21 -38.1678 3843.21ZM-38.1678 474.212C-921.9 474.212 -1640.91 1193.18 -1640.91 2076.96C-1640.91 2960.73 -921.942 3679.7 -38.1678 3679.7C845.606 3679.7 1564.58 2960.73 1564.58 2076.96C1564.58 1193.18 845.564 474.212 -38.1678 474.212Z" fill="#008278"/>
<path d="M12.0922 3694.76C-204.52 3694.76 -414.687 3652.33 -612.593 3568.63C-707.716 3528.41 -799.45 3478.61 -885.241 3420.65C-970.195 3363.23 -1050.09 3297.32 -1122.69 3224.75C-1195.3 3152.14 -1261.21 3072.25 -1318.59 2987.3C-1376.55 2901.51 -1426.35 2809.77 -1466.57 2714.65C-1550.27 2516.74 -1592.7 2306.58 -1592.7 2089.97C-1592.7 1873.35 -1550.27 1663.19 -1466.57 1465.28C-1426.35 1370.16 -1376.55 1278.42 -1318.59 1192.63C-1261.17 1107.68 -1195.26 1027.79 -1122.69 955.179C-1050.09 882.571 -970.195 816.658 -885.241 759.283C-799.45 701.322 -707.716 651.521 -612.593 611.304C-414.687 527.605 -204.52 485.17 12.0922 485.17C228.704 485.17 438.871 527.605 636.777 611.304C731.9 651.521 823.634 701.322 909.425 759.283C994.379 816.7 1074.27 882.613 1146.88 955.179C1219.49 1027.79 1285.4 1107.68 1342.77 1192.63C1400.74 1278.42 1450.54 1370.16 1490.75 1465.28C1574.45 1663.19 1616.89 1873.35 1616.89 2089.97C1616.89 2306.58 1574.45 2516.74 1490.75 2714.65C1450.54 2809.77 1400.74 2901.51 1342.77 2987.3C1285.36 3072.25 1219.44 3152.14 1146.88 3224.75C1074.27 3297.36 994.379 3363.27 909.425 3420.65C823.634 3478.61 731.9 3528.41 636.777 3568.63C438.871 3652.33 228.704 3694.76 12.0922 3694.76ZM12.0922 648.633C-782.626 648.633 -1429.2 1295.21 -1429.2 2089.92C-1429.2 2884.64 -782.626 3531.21 12.0922 3531.21C806.81 3531.21 1453.38 2884.64 1453.38 2089.92C1453.38 1295.21 806.81 648.633 12.0922 648.633Z" fill="#00D199"/>
<path d="M12.0908 3533.31C-182.718 3533.31 -371.751 3495.14 -549.778 3419.85C-635.318 3383.65 -717.845 3338.88 -794.973 3286.77C-871.39 3235.13 -943.245 3175.87 -1008.53 3110.59C-1073.82 3045.3 -1133.12 2973.45 -1184.72 2897.03C-1236.86 2819.86 -1281.64 2737.38 -1317.8 2651.84C-1393.08 2473.85 -1431.25 2284.82 -1431.25 2089.97C-1431.25 1895.12 -1393.08 1706.12 -1317.8 1528.1C-1281.6 1442.56 -1236.82 1360.03 -1184.72 1282.9C-1133.07 1206.49 -1073.82 1134.63 -1008.53 1069.35C-943.245 1004.06 -871.39 944.76 -794.973 893.16C-717.803 841.016 -635.318 796.237 -549.778 760.079C-371.793 684.792 -182.76 646.626 12.0908 646.626C206.941 646.626 395.933 684.792 573.96 760.079C659.5 796.279 742.026 841.058 819.155 893.16C895.572 944.802 967.427 1004.06 1032.71 1069.35C1098 1134.63 1157.3 1206.49 1208.9 1282.9C1261.04 1360.07 1305.82 1442.56 1341.98 1528.1C1417.26 1706.08 1455.43 1895.12 1455.43 2089.97C1455.43 2284.82 1417.26 2473.81 1341.98 2651.84C1305.78 2737.38 1261 2819.9 1208.9 2897.03C1157.26 2973.45 1098 3045.3 1032.71 3110.59C967.427 3175.87 895.572 3235.17 819.155 3286.77C741.985 3338.92 659.5 3383.7 573.96 3419.85C395.975 3495.14 206.941 3533.31 12.0908 3533.31ZM12.0908 810.047C-693.614 810.047 -1267.79 1384.18 -1267.79 2089.92C-1267.79 2795.67 -693.656 3369.8 12.0908 3369.8C717.838 3369.8 1291.97 2795.67 1291.97 2089.92C1291.97 1384.18 717.796 810.047 12.0908 810.047Z" fill="#008278"/>
<path d="M12.092 3371.9C-160.955 3371.9 -328.812 3338 -486.919 3271.12C-562.917 3238.98 -636.195 3199.22 -704.703 3152.9C-772.582 3107.03 -836.403 3054.38 -894.364 2996.42C-952.325 2938.46 -1005.01 2874.6 -1050.84 2806.76C-1097.12 2738.21 -1136.92 2664.93 -1169.06 2588.98C-1235.94 2430.87 -1269.84 2262.97 -1269.84 2089.97C-1269.84 1916.96 -1235.94 1749.06 -1169.06 1590.96C-1136.92 1514.96 -1097.17 1441.72 -1050.84 1373.17C-1004.97 1305.29 -952.325 1241.51 -894.364 1183.51C-836.361 1125.51 -772.541 1072.86 -704.703 1027.04C-636.154 980.751 -562.876 940.952 -486.919 908.812C-328.812 841.937 -160.913 808.039 12.092 808.039C185.097 808.039 352.997 841.937 511.103 908.812C587.102 940.952 660.38 980.709 728.887 1027.04C796.767 1072.9 860.545 1125.55 918.548 1183.51C976.551 1241.51 1029.2 1305.33 1075.02 1373.17C1121.31 1441.72 1161.11 1515 1193.25 1590.96C1260.12 1749.06 1294.02 1916.96 1294.02 2089.97C1294.02 2262.97 1260.12 2430.87 1193.25 2588.98C1161.11 2664.98 1121.35 2738.21 1075.02 2806.76C1029.16 2874.64 976.509 2938.46 918.548 2996.42C860.545 3054.43 796.725 3107.07 728.887 3152.9C660.338 3199.18 587.06 3238.98 511.103 3271.12C352.997 3338 185.097 3371.9 12.092 3371.9ZM12.092 971.502C-604.599 971.502 -1106.33 1473.23 -1106.33 2089.93C-1106.33 2706.62 -604.599 3208.35 12.092 3208.35C628.783 3208.35 1130.51 2706.62 1130.51 2089.93C1130.51 1473.23 628.783 971.502 12.092 971.502Z" fill="#00D199"/>
<path d="M12.0894 3210.44C-139.154 3210.44 -285.92 3180.81 -424.106 3122.35C-557.563 3065.89 -677.378 2985.12 -780.244 2882.26C-883.109 2779.39 -963.92 2659.54 -1020.33 2526.12C-1078.8 2387.93 -1108.43 2241.17 -1108.43 2089.93C-1108.43 1938.68 -1078.8 1791.92 -1020.33 1653.73C-963.878 1520.27 -883.109 1400.46 -780.244 1297.59C-677.378 1194.73 -557.522 1113.92 -424.106 1057.5C-285.92 999.039 -139.154 969.41 12.0894 969.41C163.333 969.41 310.098 999.039 448.285 1057.5C581.742 1113.96 701.557 1194.73 804.422 1297.59C907.288 1400.46 988.099 1520.31 1044.51 1653.73C1102.98 1791.92 1132.6 1938.68 1132.6 2089.93C1132.6 2241.17 1102.98 2387.93 1044.51 2526.12C988.057 2659.58 907.288 2779.39 804.422 2882.26C701.557 2985.12 581.7 3065.93 448.285 3122.35C310.098 3180.81 163.333 3210.44 12.0894 3210.44ZM12.0894 1132.92C-515.589 1132.92 -944.921 1562.25 -944.921 2089.93C-944.921 2617.6 -515.589 3046.94 12.0894 3046.94C539.767 3046.94 969.099 2617.6 969.099 2089.93C969.099 1562.25 539.767 1132.92 12.0894 1132.92Z" fill="#008278"/>
<path d="M12.0907 3049.03C-117.349 3049.03 -242.981 3023.67 -361.247 2973.61C-475.454 2925.32 -578.026 2856.14 -666.077 2768.09C-754.128 2680.04 -823.263 2577.47 -871.599 2463.26C-921.651 2344.95 -947.012 2219.36 -947.012 2089.92C-947.012 1960.48 -921.651 1834.85 -871.599 1716.59C-823.305 1602.38 -754.128 1499.81 -666.077 1411.76C-578.026 1323.71 -475.454 1254.57 -361.247 1206.23C-242.939 1156.18 -117.349 1130.82 12.0907 1130.82C141.531 1130.82 267.162 1156.18 385.428 1206.23C499.635 1254.53 602.208 1323.71 690.259 1411.76C778.31 1499.81 847.445 1602.38 895.781 1716.59C945.832 1834.89 971.193 1960.48 971.193 2089.92C971.193 2219.36 945.832 2345 895.781 2463.26C847.486 2577.47 778.31 2680.04 690.259 2768.09C602.208 2856.14 499.635 2925.28 385.428 2973.61C267.12 3023.67 141.531 3049.03 12.0907 3049.03ZM12.0907 1294.33C-426.574 1294.33 -783.465 1651.22 -783.465 2089.92C-783.465 2528.63 -426.574 2885.52 12.0907 2885.52C450.755 2885.52 807.646 2528.63 807.646 2089.92C807.646 1651.22 450.755 1294.33 12.0907 1294.33Z" fill="#00D199"/>
<path d="M12.0881 2887.62C-95.5483 2887.62 -200.046 2866.52 -298.434 2824.88C-393.432 2784.71 -478.721 2727.21 -551.957 2653.97C-625.193 2580.73 -682.694 2495.45 -722.869 2400.45C-764.468 2302.06 -785.602 2197.56 -785.602 2089.93C-785.602 1982.29 -764.51 1877.79 -722.869 1779.4C-682.694 1684.41 -625.193 1599.12 -551.957 1525.88C-478.721 1452.64 -393.432 1395.14 -298.434 1354.97C-200.046 1313.37 -95.5483 1292.24 12.0881 1292.24C119.725 1292.24 224.222 1313.33 322.61 1354.97C417.608 1395.14 502.897 1452.64 576.133 1525.88C649.369 1599.12 706.87 1684.41 747.046 1779.4C788.644 1877.79 809.778 1982.29 809.778 2089.93C809.778 2197.56 788.686 2302.06 747.046 2400.45C706.87 2495.45 649.369 2580.73 576.133 2653.97C502.897 2727.21 417.608 2784.71 322.61 2824.88C224.222 2866.48 119.725 2887.62 12.0881 2887.62ZM12.0881 1455.78C-337.563 1455.78 -622.054 1740.28 -622.054 2089.93C-622.054 2439.58 -337.563 2724.07 12.0881 2724.07C361.739 2724.07 646.231 2439.58 646.231 2089.93C646.231 1740.28 361.739 1455.78 12.0881 1455.78Z" fill="#008278"/>
<path d="M12.0904 2726.16C-73.7844 2726.16 -157.106 2709.33 -235.574 2676.11C-311.363 2644.05 -379.368 2598.18 -437.79 2539.8C-496.211 2481.38 -542.078 2413.38 -574.093 2337.59C-607.279 2259.08 -624.145 2175.76 -624.145 2089.92C-624.145 2004.09 -607.321 1920.73 -574.093 1842.26C-542.036 1766.47 -496.169 1698.46 -437.79 1640.04C-379.368 1581.62 -311.363 1535.75 -235.574 1503.74C-157.065 1470.55 -73.7425 1453.69 12.0904 1453.69C97.9233 1453.69 181.287 1470.51 259.755 1503.74C335.544 1535.8 403.549 1581.66 461.97 1640.04C520.392 1698.46 566.259 1766.47 598.274 1842.26C631.46 1920.77 648.325 2004.09 648.325 2089.92C648.325 2175.76 631.502 2259.12 598.274 2337.59C566.217 2413.38 520.35 2481.38 461.97 2539.8C403.549 2598.22 335.544 2644.09 259.755 2676.11C181.245 2709.29 97.9233 2726.16 12.0904 2726.16ZM12.0904 1617.19C-248.547 1617.19 -460.639 1829.24 -460.639 2089.92C-460.639 2350.6 -248.589 2562.65 12.0904 2562.65C272.77 2562.65 484.82 2350.6 484.82 2089.92C484.82 1829.24 272.77 1617.19 12.0904 1617.19Z" fill="#00D199"/>
<path d="M12.0919 2564.75C-51.9794 2564.75 -114.168 2552.19 -172.757 2527.42C-229.295 2503.48 -280.058 2469.29 -323.665 2425.68C-367.23 2382.12 -401.463 2331.35 -425.401 2274.77C-450.176 2216.18 -462.73 2154 -462.73 2089.92C-462.73 2025.85 -450.176 1963.66 -425.401 1905.08C-401.463 1848.54 -367.272 1797.77 -323.665 1754.17C-280.1 1710.6 -229.295 1676.37 -172.757 1652.43C-114.168 1627.66 -51.9794 1615.1 12.0919 1615.1C76.1631 1615.1 138.351 1627.66 196.94 1652.43C253.479 1676.37 304.242 1710.56 347.849 1754.17C391.414 1797.73 425.647 1848.54 449.584 1905.08C474.359 1963.66 486.914 2025.85 486.914 2089.92C486.914 2154 474.359 2216.18 449.584 2274.77C425.647 2331.31 391.456 2382.07 347.849 2425.68C304.284 2469.25 253.52 2503.48 196.94 2527.42C138.351 2552.19 76.1631 2564.75 12.0919 2564.75ZM12.0919 1778.65C-159.532 1778.65 -299.183 1918.3 -299.183 2089.92C-299.183 2261.55 -159.532 2401.2 12.0919 2401.2C183.716 2401.2 323.367 2261.55 323.367 2089.92C323.367 1918.3 183.716 1778.65 12.0919 1778.65Z" fill="#008278"/>
<path d="M243.729 2089.92C243.729 2217.86 140.026 2321.56 12.093 2321.56C-115.84 2321.56 -219.543 2217.86 -219.543 2089.92C-219.543 1961.99 -115.84 1858.29 12.093 1858.29C140.026 1858.29 243.729 1961.99 243.729 2089.92Z" fill="#008278"/>
<path d="M12.0903 2403.29C-71.6084 2403.29 -150.327 2370.69 -209.502 2311.52C-268.677 2252.34 -301.277 2173.62 -301.277 2089.92C-301.277 2006.23 -268.677 1927.51 -209.502 1868.33C-150.327 1809.16 -71.6084 1776.56 12.0903 1776.56C95.7889 1776.56 174.507 1809.16 233.682 1868.33C292.857 1927.51 325.458 2006.23 325.458 2089.92C325.458 2173.62 292.857 2252.34 233.682 2311.52C174.507 2370.69 95.7889 2403.29 12.0903 2403.29ZM12.0903 1940.06C-70.5203 1940.06 -137.772 2007.27 -137.772 2089.92C-137.772 2172.58 -70.5621 2239.79 12.0903 2239.79C94.7426 2239.79 161.953 2172.58 161.953 2089.92C161.953 2007.27 94.7426 1940.06 12.0903 1940.06Z" fill="#00D199"/>
</svg>
