<svg width="204" height="237" viewBox="0 0 204 237" fill="none" xmlns="http://www.w3.org/2000/svg">
<path d="M203.663 77.9675V35.7662L102.246 0.486328L0.829751 35.7778V77.7936C0.794969 79.1211 -2.42809 210.444 100.293 236.072L102.258 236.564L104.223 236.072C205.164 210.873 203.79 83.6252 203.669 77.9675H203.663ZM102.252 219.817C14.3191 196.154 17.0204 79.5153 17.061 78.066V47.3136L102.246 17.6741L187.431 47.3078V78.0602L187.437 78.3269C187.472 79.5095 190.191 196.149 102.252 219.823V219.817Z" fill="white"/>
<path d="M97.1384 139.234L63.0412 108.551L52.1836 120.614L99.2485 162.967L161.403 83.0391L148.592 73.0742L97.1384 139.234Z" fill="white"/>
</svg>
