<svg width="49" height="60" viewBox="0 0 49 60" fill="none" xmlns="http://www.w3.org/2000/svg">
<path fill-rule="evenodd" clip-rule="evenodd" d="M24.1526 0.261719C15.7612 0.261719 8.95318 7.05471 8.95318 15.4336V23.5584H6.72891C3.26544 23.5584 0.414062 26.3948 0.414062 29.8557V53.5442C0.414062 57.0064 3.26544 59.8416 6.72891 59.8416H41.8868C45.3502 59.8416 48.1878 57.0052 48.1878 53.5442V29.857C48.1878 26.3948 45.3502 23.5597 41.8868 23.5597H39.3646V15.4336C39.3646 7.05471 32.5453 0.261719 24.1539 0.261719H24.1526ZM24.1526 3.76649C30.6677 3.76649 35.8586 8.93978 35.8586 15.4336V23.5584H12.458V15.4349C12.458 8.94103 17.6388 3.76774 24.1526 3.76774V3.76649ZM6.72765 27.0644H41.8855C43.4714 27.0644 44.6818 28.2799 44.6818 29.857V53.5455C44.6818 55.1226 43.4714 56.338 41.8855 56.338H6.72765C5.14175 56.338 3.91758 55.1226 3.91758 53.5455V29.857C3.91758 28.2799 5.14175 27.0644 6.72765 27.0644ZM24.3066 33.2729C20.9545 33.2729 18.187 36.0279 18.187 39.3787C18.187 42.1199 20.0383 44.4531 22.5479 45.2104V48.3835C22.5504 48.8478 22.7357 49.2934 23.0661 49.6201C23.3953 49.9481 23.8422 50.1308 24.3066 50.1283C25.2691 50.1246 26.0477 49.3448 26.0527 48.3822V45.2129C28.5636 44.4581 30.4136 42.1224 30.4136 39.3775C30.4136 36.0266 27.6599 33.2716 24.3078 33.2716L24.3066 33.2729ZM24.3066 36.7777C25.7686 36.7777 26.9076 37.9255 26.9076 39.3787C26.9076 40.8319 25.7686 41.966 24.3066 41.966C22.8446 41.966 21.6918 40.8319 21.6918 39.3787C21.6918 37.9255 22.8446 36.7777 24.3066 36.7777Z" fill="#00D198"/>
</svg>
