<svg width="51" height="62" viewBox="0 0 51 62" fill="none" xmlns="http://www.w3.org/2000/svg">
<path fill-rule="evenodd" clip-rule="evenodd" d="M25.7824 1.26172C17.9188 1.26172 11.5352 7.64538 11.5352 15.5089C11.5352 23.3725 17.9188 29.7561 25.7824 29.7561C33.6459 29.7561 40.0296 23.3725 40.0296 15.5089C40.0296 7.64538 33.6459 1.26172 25.7824 1.26172ZM25.7824 3.85182C32.216 3.85182 37.4395 9.07531 37.4395 15.5089C37.4395 21.9425 32.216 27.166 25.7824 27.166C19.3488 27.166 14.1253 21.9425 14.1253 15.5089C14.1253 9.07531 19.3488 3.85182 25.7824 3.85182Z" fill="#00D198" stroke="#00D198"/>
<path fill-rule="evenodd" clip-rule="evenodd" d="M50.3915 54.3674C50.3915 48.5266 48.0712 42.9268 43.9424 38.7968C39.8135 34.668 34.2126 32.3477 28.3718 32.3477H23.1916C17.3508 32.3477 11.751 34.6669 7.62103 38.7968C3.49109 42.9268 1.17188 48.5266 1.17188 54.3674V56.9575C1.17188 59.1035 2.91156 60.8432 5.05758 60.8432H46.5058C48.6518 60.8432 50.3915 59.1035 50.3915 56.9575V54.3674ZM47.8003 54.3674V56.9575C47.8003 57.6725 47.2197 58.2531 46.5058 58.2531H5.05758C4.34261 58.2531 3.76308 57.6725 3.76308 56.9575V54.3674C3.76308 49.2149 5.80919 44.2723 9.45287 40.6286C13.0965 36.985 18.0392 34.9389 23.1916 34.9389H28.3718C33.5242 34.9389 38.4669 36.985 42.1105 40.6286C45.7542 44.2723 47.8003 49.2149 47.8003 54.3674Z" fill="#00D198" stroke="#00D198"/>
</svg>
